<?xml version="1.0" encoding="UTF-8" standalone="no"?>
<svg
   class="main-svg"
   width="488.47998"
   height="488.47998"
   viewBox="0 0 488.47998 488.47998"
   version="1.1"
   id="svg112"
   sodipodi:docname="favicon.svg"
   inkscape:version="1.4 (86a8ad7, 2024-10-11)"
   xmlns:inkscape="http://www.inkscape.org/namespaces/inkscape"
   xmlns:sodipodi="http://sodipodi.sourceforge.net/DTD/sodipodi-0.dtd"
   xmlns="http://www.w3.org/2000/svg"
   xmlns:svg="http://www.w3.org/2000/svg">
  <sodipodi:namedview
     id="namedview112"
     pagecolor="#ffffff"
     bordercolor="#666666"
     borderopacity="1.0"
     inkscape:showpageshadow="2"
     inkscape:pageopacity="0.0"
     inkscape:pagecheckerboard="0"
     inkscape:deskcolor="#d1d1d1"
     inkscape:zoom="1.0931871"
     inkscape:cx="354.46815"
     inkscape:cy="338.00253"
     inkscape:window-width="1920"
     inkscape:window-height="991"
     inkscape:window-x="2551"
     inkscape:window-y="1439"
     inkscape:window-maximized="1"
     inkscape:current-layer="svg112" />
  <defs
     id="defs-b16fb1">
    <g
       class="clips"
       id="g5">
      <clipPath
         id="clipb16fb1xyplot"
         class="plotclip">
        <rect
           width="567"
           height="424"
           id="rect2"
           x="0"
           y="0" />
      </clipPath>
      <clipPath
         class="axesclip"
         id="clipb16fb1x">
        <rect
           x="64"
           y="0"
           width="567"
           height="500"
           id="rect3" />
      </clipPath>
      <clipPath
         class="axesclip"
         id="clipb16fb1y">
        <rect
           x="0"
           y="30"
           width="700"
           height="424"
           id="rect4" />
      </clipPath>
      <clipPath
         class="axesclip"
         id="clipb16fb1xy">
        <rect
           x="64"
           y="30"
           width="567"
           height="424"
           id="rect5" />
      </clipPath>
    </g>
    <g
       class="gradients"
       id="g6" />
    <g
       class="patterns"
       id="g7" />
  </defs>
  <circle
     style="fill:#ffffff;stroke:none;stroke-width:1.00157;stroke-linecap:round;stroke-linejoin:round"
     id="path112"
     cx="244.23999"
     cy="244.23999"
     r="244.23999" />
  <g
     class="layer-below"
     id="g11"
     transform="translate(-49.122894,516.83743)">
    <g
       class="imagelayer"
       id="g9" />
    <g
       class="shapelayer"
       id="g10" />
  </g>
  <g
     class="layer-subplot"
     id="g14"
     transform="translate(-38.126775,499.77404)">
    <g
       class="shapelayer"
       id="g12" />
    <g
       class="imagelayer"
       id="g13" />
  </g>
  <g
     class="minor-gridlayer"
     id="g17"
     transform="translate(-38.126775,499.77404)">
    <g
       class="x"
       id="g15" />
    <g
       class="y"
       id="g16" />
  </g>
  <path
     class="xlines-below"
     id="path28"
     d="" />
  <path
     class="ylines-below"
     id="path29"
     d="" />
  <g
     class="overlines-below"
     id="g29"
     transform="translate(-38.126775,499.77404)" />
  <g
     class="xaxislayer-below"
     id="g30"
     transform="translate(-38.126775,499.77404)" />
  <g
     class="yaxislayer-below"
     id="g31"
     transform="translate(-38.126775,499.77404)" />
  <g
     class="overaxes-below"
     id="g32"
     transform="translate(-38.126775,499.77404)" />
  <g
     class="plot"
     transform="translate(3.7128906e-6,30.420873)"
     clip-path="url(#clipb16fb1xyplot)"
     id="g55">
    <g
       class="scatterlayer mlayer"
       id="g54">
      <g
         class="trace scatter trace204c38"
         style="stroke-miterlimit:2"
         id="g39">
        <g
           class="fills"
           id="g34">
          <g
             id="g33">
            <path
               class="js-fill"
               d="m 243.19,211.96 v 0 0 l -29.3,0.52 -1.21,0.55 -15.15,6.98 -2.54,1.32 -9.05,4.91 -2.74,1.8 -16.37,11.72 -3.66,2.92 -10.39,9.54 -3.45,3.51 -13.02,15.48 -2.96,4.17 -5.8,8.84 -2.7,4.59 -6.33,13.73 -1.79,4.72 -3.95,14.13 -0.72,4.56 -1.25,9.46 -0.27,4.65 0.57,13.54 0.63,4.35 3.45,12.08 1.52,3.82 5.99,10.19 2.38,3.03 5.35,5.34 2.99,2.25 6.39,3.81 3.39,1.54 11.13,2.51 3.89,0.28 11.99,-0.72 4.1,-0.89 8.18,-2.4 4.07,-1.6 8.08,-4.06 3.94,-2.26 7.66,-5.09 3.76,-3.06 10.6,-10.04 3.3,-3.59 6.22,-7.75 2.91,-4.13 7.86,-13.61 2.3,-4.9 5.91,-13.94 1.64,-4.74 3.99,-14.06 1.05,-4.43 3.09,-21.63 0.21,-4.18 0.2,-17.01 -0.22,-3.14 -1.81,-19.24 -14.06,-24.37"
               style="fill:#4c72b0;fill-opacity:0.5;stroke-width:0"
               id="path32" />
          </g>
        </g>
        <g
           class="errorbars"
           id="g35" />
        <g
           class="lines"
           id="g36">
          <path
             class="js-line"
             d="m 243.19,211.96 -29.3,0.52 -1.21,0.55 -15.15,6.98 -2.54,1.32 -9.05,4.91 -2.74,1.8 -16.37,11.72 -3.66,2.92 -10.39,9.54 -3.45,3.51 -13.02,15.48 -2.96,4.17 -5.8,8.84 -2.7,4.59 -6.33,13.73 -1.79,4.72 -3.95,14.13 -0.72,4.56 -1.25,9.46 -0.27,4.65 0.57,13.54 0.63,4.35 3.45,12.08 1.52,3.82 5.99,10.19 2.38,3.03 5.35,5.34 2.99,2.25 6.39,3.81 3.39,1.54 11.13,2.51 3.89,0.28 11.99,-0.72 4.1,-0.89 8.18,-2.4 4.07,-1.6 8.08,-4.06 3.94,-2.26 7.66,-5.09 3.76,-3.06 10.6,-10.04 3.3,-3.59 6.22,-7.75 2.91,-4.13 7.86,-13.61 2.3,-4.9 5.91,-13.94 1.64,-4.74 3.99,-14.06 1.05,-4.43 3.09,-21.63 0.21,-4.18 0.2,-17.01 -0.22,-3.14 -1.81,-19.24 -14.06,-24.37"
             style="opacity:1;vector-effect:none;fill:none;stroke:#4c72b0;stroke-width:2px;stroke-opacity:1"
             id="path35" />
        </g>
        <g
           class="points"
           id="g37" />
        <g
           class="text"
           id="g38" />
      </g>
      <g
         class="trace scatter tracedbf817"
         style="stroke-miterlimit:2"
         id="g46">
        <g
           class="fills"
           id="g41">
          <g
             id="g40">
            <path
               class="js-fill"
               d="m 243.19,211.96 v 0 0 l 14.2,-25.62 0.13,-1.33 1.52,-16.61 0.13,-2.86 0.28,-10.29 -0.19,-3.27 -1.96,-20.03 -0.7,-4.64 -3.07,-13.77 -1.32,-4.74 -6.89,-19.01 -2.13,-4.66 -4.76,-9.44 -2.63,-4.63 -8.72,-12.34 -3.19,-3.92 -10.26,-10.48 -3.59,-2.9 -7.57,-5.82 -3.89,-2.56 -12.01,-6.27 -4.09,-1.63 -12.18,-3.06 -4.07,-0.59 -11.82,0.09 -3.81,0.55 -7.3,1.97 -3.44,1.45 -6.5,3.63 -3.03,2.17 -7.74,8.39 -2.19,3.22 -5.37,10.74 -1.28,4 -2,8.28 -0.66,4.33 -0.54,13.57 0.19,4.57 1.16,9.39 0.97,4.77 3.89,14.09 1.59,4.56 6.51,13.86 2.61,4.54 8.9,13.09 3.31,4.18 9.38,11.14 3.43,3.51 13.98,12.46 3.45,2.7 13.35,9.17 2.92,1.84 11.3,6.16 2.49,1.21 9.64,4.5 1.73,0.68 3.71,1.66 h 28.13"
               style="fill:#dd8452;fill-opacity:0.5;stroke-width:0"
               id="path39" />
          </g>
        </g>
        <g
           class="errorbars"
           id="g42" />
        <g
           class="lines"
           id="g43">
          <path
             class="js-line"
             d="m 243.19,211.96 14.2,-25.62 0.13,-1.33 1.52,-16.61 0.13,-2.86 0.28,-10.29 -0.19,-3.27 -1.96,-20.03 -0.7,-4.64 -3.07,-13.77 -1.32,-4.74 -6.89,-19.01 -2.13,-4.66 -4.76,-9.44 -2.63,-4.63 -8.72,-12.34 -3.19,-3.92 -10.26,-10.48 -3.59,-2.9 -7.57,-5.82 -3.89,-2.56 -12.01,-6.27 -4.09,-1.63 -12.18,-3.06 -4.07,-0.59 -11.82,0.09 -3.81,0.55 -7.3,1.97 -3.44,1.45 -6.5,3.63 -3.03,2.17 -7.74,8.39 -2.19,3.22 -5.37,10.74 -1.28,4 -2,8.28 -0.66,4.33 -0.54,13.57 0.19,4.57 1.16,9.39 0.97,4.77 3.89,14.09 1.59,4.56 6.51,13.86 2.61,4.54 8.9,13.09 3.31,4.18 9.38,11.14 3.43,3.51 13.98,12.46 3.45,2.7 13.35,9.17 2.92,1.84 11.3,6.16 2.49,1.21 9.64,4.5 1.73,0.68 3.71,1.66 h 28.13"
             style="opacity:1;vector-effect:none;fill:none;stroke:#dd8452;stroke-width:2px;stroke-opacity:1"
             id="path42" />
        </g>
        <g
           class="points"
           id="g44" />
        <g
           class="text"
           id="g45" />
      </g>
      <g
         class="trace scatter tracee6f239"
         style="stroke-miterlimit:2"
         id="g53">
        <g
           class="fills"
           id="g48">
          <g
             id="g47">
            <path
               class="js-fill"
               d="m 243.19,211.96 v 0 0 l 15.09,25.12 1.08,0.77 13.63,9.63 2.41,1.54 8.77,5.39 2.93,1.47 18.33,8.31 4.37,1.71 13.45,4.24 4.77,1.23 19.91,3.53 5.1,0.48 10.56,0.6 5.32,0.04 15.05,-1.38 4.99,-0.8 14.2,-3.65 4.31,-1.66 8.83,-3.64 4.16,-2.1 11.43,-7.26 3.46,-2.72 8.73,-9.03 2.55,-3.22 5.84,-10.29 1.43,-3.57 1.94,-7.31 0.46,-3.71 0.1,-7.44 -0.36,-3.71 -1.88,-7.32 -1.51,-3.57 -5.78,-10.3 -2.54,-3.23 -8.99,-8.99 -3.41,-2.73 -11.49,-7.25 -4.05,-2.12 -8.72,-3.69 -4.61,-1.55 -14.14,-3.67 -4.75,-0.91 -15.26,-1.29 h -5.23 l -15.79,1.15 -5.28,0.78 -14.34,2.56 -4.75,1.21 -17.78,5.88 -4.06,1.64 -14.62,6.97 -3.05,1.61 -10.99,6.71 -2.29,1.55 -8.71,6.1 -1.46,1.16 -3.3,2.37 -14.06,24.36"
               style="fill:#55a868;fill-opacity:0.5;stroke-width:0"
               id="path46" />
          </g>
        </g>
        <g
           class="errorbars"
           id="g49" />
        <g
           class="lines"
           id="g50">
          <path
             class="js-line"
             d="m 243.19,211.96 15.09,25.12 1.08,0.77 13.63,9.63 2.41,1.54 8.77,5.39 2.93,1.47 18.33,8.31 4.37,1.71 13.45,4.24 4.77,1.23 19.91,3.53 5.1,0.48 10.56,0.6 5.32,0.04 15.05,-1.38 4.99,-0.8 14.2,-3.65 4.31,-1.66 8.83,-3.64 4.16,-2.1 11.43,-7.26 3.46,-2.72 8.73,-9.03 2.55,-3.22 5.84,-10.29 1.43,-3.57 1.94,-7.31 0.46,-3.71 0.1,-7.44 -0.36,-3.71 -1.88,-7.32 -1.51,-3.57 -5.78,-10.3 -2.54,-3.23 -8.99,-8.99 -3.41,-2.73 -11.49,-7.25 -4.05,-2.12 -8.72,-3.69 -4.61,-1.55 -14.14,-3.67 -4.75,-0.91 -15.26,-1.29 h -5.23 l -15.79,1.15 -5.28,0.78 -14.34,2.56 -4.75,1.21 -17.78,5.88 -4.06,1.64 -14.62,6.97 -3.05,1.61 -10.99,6.71 -2.29,1.55 -8.71,6.1 -1.46,1.16 -3.3,2.37 -14.06,24.36"
             style="opacity:1;vector-effect:none;fill:none;stroke:#55a868;stroke-width:2px;stroke-opacity:1"
             id="path49" />
        </g>
        <g
           class="points"
           id="g51" />
        <g
           class="text"
           id="g52" />
      </g>
    </g>
  </g>
  <g
     class="overplot"
     id="g56"
     transform="translate(-38.126775,499.77404)" />
  <path
     class="xlines-above crisp"
     d="M -63.999996,0.42087286"
     style="fill:none"
     id="path56" />
  <path
     class="ylines-above crisp"
     d="M -63.999996,0.42087286"
     style="fill:none"
     id="path57" />
  <g
     class="overlines-above"
     id="g57"
     transform="translate(-38.126775,499.77404)" />
  <g
     class="overaxes-above"
     id="g71"
     transform="translate(-38.126775,499.77404)" />
  <g
     class="polarlayer"
     id="g74"
     transform="translate(-49.122894,516.83743)" />
  <g
     class="smithlayer"
     id="g75"
     transform="translate(-49.122894,516.83743)" />
  <g
     class="ternarylayer"
     id="g76"
     transform="translate(-49.122894,516.83743)" />
  <g
     class="geolayer"
     id="g77"
     transform="translate(-49.122894,516.83743)" />
  <g
     class="funnelarealayer"
     id="g78"
     transform="translate(-49.122894,516.83743)" />
  <g
     class="pielayer"
     id="g79"
     transform="translate(-49.122894,516.83743)" />
  <g
     class="iciclelayer"
     id="g80"
     transform="translate(-49.122894,516.83743)" />
  <g
     class="treemaplayer"
     id="g81"
     transform="translate(-49.122894,516.83743)" />
  <g
     class="sunburstlayer"
     id="g82"
     transform="translate(-49.122894,516.83743)" />
  <g
     class="glimages"
     id="g83"
     transform="translate(-49.122894,516.83743)" />
  <defs
     id="topdefs-b16fb1">
    <g
       class="clips"
       id="g84" />
    <clipPath
       id="legendb16fb1">
      <rect
         width="53"
         height="67"
         x="0"
         y="0"
         id="rect84" />
    </clipPath>
  </defs>
  <g
     class="layer-above"
     id="g87"
     transform="translate(-49.122894,516.83743)">
    <g
       class="imagelayer"
       id="g85" />
    <g
       class="shapelayer"
       id="g86" />
  </g>
</svg>
