<svg class="main-svg" xmlns="http://www.w3.org/2000/svg" xmlns:xlink="http://www.w3.org/1999/xlink" width="700" height="500" style="" viewBox="0 0 700 500"><rect x="0" y="0" width="700" height="500" style="fill: rgb(255, 255, 255); fill-opacity: 1;"/><defs id="defs-b16fb1"><g class="clips"><clipPath id="clipb16fb1xyplot" class="plotclip"><rect width="567" height="424"/></clipPath><clipPath class="axesclip" id="clipb16fb1x"><rect x="64" y="0" width="567" height="500"/></clipPath><clipPath class="axesclip" id="clipb16fb1y"><rect x="0" y="30" width="700" height="424"/></clipPath><clipPath class="axesclip" id="clipb16fb1xy"><rect x="64" y="30" width="567" height="424"/></clipPath></g><g class="gradients"/><g class="patterns"/></defs><g class="bglayer"><rect class="bg" x="64" y="30" width="567" height="424" style="fill: rgb(234, 234, 242); fill-opacity: 1; stroke-width: 0;"/></g><g class="layer-below"><g class="imagelayer"/><g class="shapelayer"/></g><g class="cartesianlayer"><g class="subplot xy"><g class="layer-subplot"><g class="shapelayer"/><g class="imagelayer"/></g><g class="minor-gridlayer"><g class="x"/><g class="y"/></g><g class="gridlayer"><g class="x"><path class="xgrid crisp" transform="translate(152.26,0)" d="M0,30v424" style="stroke: rgb(255, 255, 255); stroke-opacity: 1; stroke-width: 1px;"/><path class="xgrid crisp" transform="translate(462.11,0)" d="M0,30v424" style="stroke: rgb(255, 255, 255); stroke-opacity: 1; stroke-width: 1px;"/><path class="xgrid crisp" transform="translate(617.04,0)" d="M0,30v424" style="stroke: rgb(255, 255, 255); stroke-opacity: 1; stroke-width: 1px;"/></g><g class="y"><path class="ygrid crisp" transform="translate(0,427.87)" d="M64,0h567" style="stroke: rgb(255, 255, 255); stroke-opacity: 1; stroke-width: 1px;"/><path class="ygrid crisp" transform="translate(0,365.9)" d="M64,0h567" style="stroke: rgb(255, 255, 255); stroke-opacity: 1; stroke-width: 1px;"/><path class="ygrid crisp" transform="translate(0,303.93)" d="M64,0h567" style="stroke: rgb(255, 255, 255); stroke-opacity: 1; stroke-width: 1px;"/><path class="ygrid crisp" transform="translate(0,179.99)" d="M64,0h567" style="stroke: rgb(255, 255, 255); stroke-opacity: 1; stroke-width: 1px;"/><path class="ygrid crisp" transform="translate(0,118.02)" d="M64,0h567" style="stroke: rgb(255, 255, 255); stroke-opacity: 1; stroke-width: 1px;"/><path class="ygrid crisp" transform="translate(0,56.05)" d="M64,0h567" style="stroke: rgb(255, 255, 255); stroke-opacity: 1; stroke-width: 1px;"/></g></g><g class="zerolinelayer"><path class="xzl zl crisp" transform="translate(307.19,0)" d="M0,30v424" style="stroke: rgb(255, 255, 255); stroke-opacity: 1; stroke-width: 1px;"/><path class="yzl zl crisp" transform="translate(0,241.96)" d="M64,0h567" style="stroke: rgb(255, 255, 255); stroke-opacity: 1; stroke-width: 1px;"/></g><path class="xlines-below"/><path class="ylines-below"/><g class="overlines-below"/><g class="xaxislayer-below"/><g class="yaxislayer-below"/><g class="overaxes-below"/><g class="plot" transform="translate(64,30)" clip-path="url(#clipb16fb1xyplot)"><g class="scatterlayer mlayer"><g class="trace scatter trace204c38" style="stroke-miterlimit: 2;"><g class="fills"><g><path class="js-fill" d="M243.19,211.96L243.19,211.96L243.19,211.96L213.89,212.48L212.68,213.03L197.53,220.01L194.99,221.33L185.94,226.24L183.2,228.04L166.83,239.76L163.17,242.68L152.78,252.22L149.33,255.73L136.31,271.21L133.35,275.38L127.55,284.22L124.85,288.81L118.52,302.54L116.73,307.26L112.78,321.39L112.06,325.95L110.81,335.41L110.54,340.06L111.11,353.6L111.74,357.95L115.19,370.03L116.71,373.85L122.7,384.04L125.08,387.07L130.43,392.41L133.42,394.66L139.81,398.47L143.2,400.01L154.33,402.52L158.22,402.8L170.21,402.08L174.31,401.19L182.49,398.79L186.56,397.19L194.64,393.13L198.58,390.87L206.24,385.78L210,382.72L220.6,372.68L223.9,369.09L230.12,361.34L233.03,357.21L240.89,343.6L243.19,338.7L249.1,324.76L250.74,320.02L254.73,305.96L255.78,301.53L258.87,279.9L259.08,275.72L259.28,258.71L259.06,255.57L257.25,236.33L243.19,211.96" style="fill: rgb(76, 114, 176); fill-opacity: 0.5; stroke-width: 0;"/></g></g><g class="errorbars"/><g class="lines"><path class="js-line" d="M243.19,211.96L213.89,212.48L212.68,213.03L197.53,220.01L194.99,221.33L185.94,226.24L183.2,228.04L166.83,239.76L163.17,242.68L152.78,252.22L149.33,255.73L136.31,271.21L133.35,275.38L127.55,284.22L124.85,288.81L118.52,302.54L116.73,307.26L112.78,321.39L112.06,325.95L110.81,335.41L110.54,340.06L111.11,353.6L111.74,357.95L115.19,370.03L116.71,373.85L122.7,384.04L125.08,387.07L130.43,392.41L133.42,394.66L139.81,398.47L143.2,400.01L154.33,402.52L158.22,402.8L170.21,402.08L174.31,401.19L182.49,398.79L186.56,397.19L194.64,393.13L198.58,390.87L206.24,385.78L210,382.72L220.6,372.68L223.9,369.09L230.12,361.34L233.03,357.21L240.89,343.6L243.19,338.7L249.1,324.76L250.74,320.02L254.73,305.96L255.78,301.53L258.87,279.9L259.08,275.72L259.28,258.71L259.06,255.57L257.25,236.33L243.19,211.96" style="vector-effect: none; fill: none; stroke: rgb(76, 114, 176); stroke-opacity: 1; stroke-width: 2px; opacity: 1;"/></g><g class="points"/><g class="text"/></g><g class="trace scatter tracedbf817" style="stroke-miterlimit: 2;"><g class="fills"><g><path class="js-fill" d="M243.19,211.96L243.19,211.96L243.19,211.96L257.39,186.34L257.52,185.01L259.04,168.4L259.17,165.54L259.45,155.25L259.26,151.98L257.3,131.95L256.6,127.31L253.53,113.54L252.21,108.8L245.32,89.79L243.19,85.13L238.43,75.69L235.8,71.06L227.08,58.72L223.89,54.8L213.63,44.32L210.04,41.42L202.47,35.6L198.58,33.04L186.57,26.77L182.48,25.14L170.3,22.08L166.23,21.49L154.41,21.58L150.6,22.13L143.3,24.1L139.86,25.55L133.36,29.18L130.33,31.35L122.59,39.74L120.4,42.96L115.03,53.7L113.75,57.7L111.75,65.98L111.09,70.31L110.55,83.88L110.74,88.45L111.9,97.84L112.87,102.61L116.76,116.7L118.35,121.26L124.86,135.12L127.47,139.66L136.37,152.75L139.68,156.93L149.06,168.07L152.49,171.58L166.47,184.04L169.92,186.74L183.27,195.91L186.19,197.75L197.49,203.91L199.98,205.12L209.62,209.62L211.35,210.3L215.06,211.96L243.19,211.96" style="fill: rgb(221, 132, 82); fill-opacity: 0.5; stroke-width: 0;"/></g></g><g class="errorbars"/><g class="lines"><path class="js-line" d="M243.19,211.96L257.39,186.34L257.52,185.01L259.04,168.4L259.17,165.54L259.45,155.25L259.26,151.98L257.3,131.95L256.6,127.31L253.53,113.54L252.21,108.8L245.32,89.79L243.19,85.13L238.43,75.69L235.8,71.06L227.08,58.72L223.89,54.8L213.63,44.32L210.04,41.42L202.47,35.6L198.58,33.04L186.57,26.77L182.48,25.14L170.3,22.08L166.23,21.49L154.41,21.58L150.6,22.13L143.3,24.1L139.86,25.55L133.36,29.18L130.33,31.35L122.59,39.74L120.4,42.96L115.03,53.7L113.75,57.7L111.75,65.98L111.09,70.31L110.55,83.88L110.74,88.45L111.9,97.84L112.87,102.61L116.76,116.7L118.35,121.26L124.86,135.12L127.47,139.66L136.37,152.75L139.68,156.93L149.06,168.07L152.49,171.58L166.47,184.04L169.92,186.74L183.27,195.91L186.19,197.75L197.49,203.91L199.98,205.12L209.62,209.62L211.35,210.3L215.06,211.96L243.19,211.96" style="vector-effect: none; fill: none; stroke: rgb(221, 132, 82); stroke-opacity: 1; stroke-width: 2px; opacity: 1;"/></g><g class="points"/><g class="text"/></g><g class="trace scatter tracee6f239" style="stroke-miterlimit: 2;"><g class="fills"><g><path class="js-fill" d="M243.19,211.96L243.19,211.96L243.19,211.96L258.28,237.08L259.36,237.85L272.99,247.48L275.4,249.02L284.17,254.41L287.1,255.88L305.43,264.19L309.8,265.9L323.25,270.14L328.02,271.37L347.93,274.9L353.03,275.38L363.59,275.98L368.91,276.02L383.96,274.64L388.95,273.84L403.15,270.19L407.46,268.53L416.29,264.89L420.45,262.79L431.88,255.53L435.34,252.81L444.07,243.78L446.62,240.56L452.46,230.27L453.89,226.7L455.83,219.39L456.29,215.68L456.39,208.24L456.03,204.53L454.15,197.21L452.64,193.64L446.86,183.34L444.32,180.11L435.33,171.12L431.92,168.39L420.43,161.14L416.38,159.02L407.66,155.33L403.05,153.78L388.91,150.11L384.16,149.2L368.9,147.91L363.67,147.91L347.88,149.06L342.6,149.84L328.26,152.4L323.51,153.61L305.73,159.49L301.67,161.13L287.05,168.1L284,169.71L273.01,176.42L270.72,177.97L262.01,184.07L260.55,185.23L257.25,187.6L243.19,211.96" style="fill: rgb(85, 168, 104); fill-opacity: 0.5; stroke-width: 0;"/></g></g><g class="errorbars"/><g class="lines"><path class="js-line" d="M243.19,211.96L258.28,237.08L259.36,237.85L272.99,247.48L275.4,249.02L284.17,254.41L287.1,255.88L305.43,264.19L309.8,265.9L323.25,270.14L328.02,271.37L347.93,274.9L353.03,275.38L363.59,275.98L368.91,276.02L383.96,274.64L388.95,273.84L403.15,270.19L407.46,268.53L416.29,264.89L420.45,262.79L431.88,255.53L435.34,252.81L444.07,243.78L446.62,240.56L452.46,230.27L453.89,226.7L455.83,219.39L456.29,215.68L456.39,208.24L456.03,204.53L454.15,197.21L452.64,193.64L446.86,183.34L444.32,180.11L435.33,171.12L431.92,168.39L420.43,161.14L416.38,159.02L407.66,155.33L403.05,153.78L388.91,150.11L384.16,149.2L368.9,147.91L363.67,147.91L347.88,149.06L342.6,149.84L328.26,152.4L323.51,153.61L305.73,159.49L301.67,161.13L287.05,168.1L284,169.71L273.01,176.42L270.72,177.97L262.01,184.07L260.55,185.23L257.25,187.6L243.19,211.96" style="vector-effect: none; fill: none; stroke: rgb(85, 168, 104); stroke-opacity: 1; stroke-width: 2px; opacity: 1;"/></g><g class="points"/><g class="text"/></g></g></g><g class="overplot"/><path class="xlines-above crisp" d="M0,0" style="fill: none;"/><path class="ylines-above crisp" d="M0,0" style="fill: none;"/><g class="overlines-above"/><g class="xaxislayer-above"><g class="xtick"><text text-anchor="middle" x="0" y="467" transform="translate(152.26,0)" style="font-family: 'Open Sans', verdana, arial, sans-serif; font-size: 12px; fill: rgb(36, 36, 36); fill-opacity: 1; white-space: pre; opacity: 1;">−500</text></g><g class="xtick"><text text-anchor="middle" x="0" y="467" style="font-family: 'Open Sans', verdana, arial, sans-serif; font-size: 12px; fill: rgb(36, 36, 36); fill-opacity: 1; white-space: pre; opacity: 1;" transform="translate(307.19,0)">0</text></g><g class="xtick"><text text-anchor="middle" x="0" y="467" style="font-family: 'Open Sans', verdana, arial, sans-serif; font-size: 12px; fill: rgb(36, 36, 36); fill-opacity: 1; white-space: pre; opacity: 1;" transform="translate(462.11,0)">500</text></g><g class="xtick"><text text-anchor="middle" x="0" y="467" style="font-family: 'Open Sans', verdana, arial, sans-serif; font-size: 12px; fill: rgb(36, 36, 36); fill-opacity: 1; white-space: pre; opacity: 1;" transform="translate(617.04,0)">1000</text></g></g><g class="yaxislayer-above"><g class="ytick"><text text-anchor="end" x="63" y="4.199999999999999" transform="translate(0,427.87)" style="font-family: 'Open Sans', verdana, arial, sans-serif; font-size: 12px; fill: rgb(36, 36, 36); fill-opacity: 1; white-space: pre; opacity: 1;">−600</text></g><g class="ytick"><text text-anchor="end" x="63" y="4.199999999999999" style="font-family: 'Open Sans', verdana, arial, sans-serif; font-size: 12px; fill: rgb(36, 36, 36); fill-opacity: 1; white-space: pre; opacity: 1;" transform="translate(0,365.9)">−400</text></g><g class="ytick"><text text-anchor="end" x="63" y="4.199999999999999" style="font-family: 'Open Sans', verdana, arial, sans-serif; font-size: 12px; fill: rgb(36, 36, 36); fill-opacity: 1; white-space: pre; opacity: 1;" transform="translate(0,303.93)">−200</text></g><g class="ytick"><text text-anchor="end" x="63" y="4.199999999999999" style="font-family: 'Open Sans', verdana, arial, sans-serif; font-size: 12px; fill: rgb(36, 36, 36); fill-opacity: 1; white-space: pre; opacity: 1;" transform="translate(0,241.96)">0</text></g><g class="ytick"><text text-anchor="end" x="63" y="4.199999999999999" style="font-family: 'Open Sans', verdana, arial, sans-serif; font-size: 12px; fill: rgb(36, 36, 36); fill-opacity: 1; white-space: pre; opacity: 1;" transform="translate(0,179.99)">200</text></g><g class="ytick"><text text-anchor="end" x="63" y="4.199999999999999" style="font-family: 'Open Sans', verdana, arial, sans-serif; font-size: 12px; fill: rgb(36, 36, 36); fill-opacity: 1; white-space: pre; opacity: 1;" transform="translate(0,118.02)">400</text></g><g class="ytick"><text text-anchor="end" x="63" y="4.199999999999999" style="font-family: 'Open Sans', verdana, arial, sans-serif; font-size: 12px; fill: rgb(36, 36, 36); fill-opacity: 1; white-space: pre; opacity: 1;" transform="translate(0,56.05)">600</text></g></g><g class="overaxes-above"/></g></g><g class="polarlayer"/><g class="smithlayer"/><g class="ternarylayer"/><g class="geolayer"/><g class="funnelarealayer"/><g class="pielayer"/><g class="iciclelayer"/><g class="treemaplayer"/><g class="sunburstlayer"/><g class="glimages"/><defs id="topdefs-b16fb1"><g class="clips"/><clipPath id="legendb16fb1"><rect width="53" height="67" x="0" y="0"/></clipPath></defs><g class="layer-above"><g class="imagelayer"/><g class="shapelayer"/></g><g class="infolayer"><g class="legend" pointer-events="all" transform="translate(642.34,30)"><rect class="bg" shape-rendering="crispEdges" style="stroke: rgb(68, 68, 68); stroke-opacity: 1; fill: rgb(255, 255, 255); fill-opacity: 1; stroke-width: 0px;" width="53" height="67" x="0" y="0"/><g class="scrollbox" transform="" clip-path="url(#legendb16fb1)"><g class="groups"><g class="traces" transform="translate(0,14.5)" style="opacity: 1;"><text class="legendtext" text-anchor="start" x="40" y="4.680000000000001" style="font-family: 'Open Sans', verdana, arial, sans-serif; font-size: 12px; fill: rgb(36, 36, 36); fill-opacity: 1; white-space: pre;">1</text><g class="layers"><g class="legendfill"><path class="js-fill" d="M5,-2h30v6h-30z" style="stroke-width: 0; fill: rgb(76, 114, 176); fill-opacity: 0.5;"/></g><g class="legendlines"><path class="js-line" d="M5,-2h30" style="fill: none; stroke: rgb(76, 114, 176); stroke-opacity: 1; stroke-width: 2px;"/></g><g class="legendsymbols"><g class="legendpoints"/></g></g><rect class="legendtoggle" x="0" y="-9.5" width="47.640625" height="19" style="fill: rgb(0, 0, 0); fill-opacity: 0;"/></g><g class="traces" transform="translate(0,33.5)" style="opacity: 1;"><text class="legendtext" text-anchor="start" x="40" y="4.680000000000001" style="font-family: 'Open Sans', verdana, arial, sans-serif; font-size: 12px; fill: rgb(36, 36, 36); fill-opacity: 1; white-space: pre;">2</text><g class="layers"><g class="legendfill"><path class="js-fill" d="M5,-2h30v6h-30z" style="stroke-width: 0; fill: rgb(221, 132, 82); fill-opacity: 0.5;"/></g><g class="legendlines"><path class="js-line" d="M5,-2h30" style="fill: none; stroke: rgb(221, 132, 82); stroke-opacity: 1; stroke-width: 2px;"/></g><g class="legendsymbols"><g class="legendpoints"/></g></g><rect class="legendtoggle" x="0" y="-9.5" width="47.640625" height="19" style="fill: rgb(0, 0, 0); fill-opacity: 0;"/></g><g class="traces" transform="translate(0,52.5)" style="opacity: 1;"><text class="legendtext" text-anchor="start" x="40" y="4.680000000000001" style="font-family: 'Open Sans', verdana, arial, sans-serif; font-size: 12px; fill: rgb(36, 36, 36); fill-opacity: 1; white-space: pre;">3</text><g class="layers"><g class="legendfill"><path class="js-fill" d="M5,-2h30v6h-30z" style="stroke-width: 0; fill: rgb(85, 168, 104); fill-opacity: 0.5;"/></g><g class="legendlines"><path class="js-line" d="M5,-2h30" style="fill: none; stroke: rgb(85, 168, 104); stroke-opacity: 1; stroke-width: 2px;"/></g><g class="legendsymbols"><g class="legendpoints"/></g></g><rect class="legendtoggle" x="0" y="-9.5" width="47.640625" height="19" style="fill: rgb(0, 0, 0); fill-opacity: 0;"/></g></g></g><rect class="scrollbar" rx="20" ry="3" width="0" height="0" style="fill: rgb(128, 139, 164); fill-opacity: 1;" x="0" y="0"/></g><g class="g-gtitle"/><g class="g-xtitle"><text class="xtitle" x="347.5" y="494.3" text-anchor="middle" style="font-family: 'Open Sans', verdana, arial, sans-serif; font-size: 14px; fill: rgb(36, 36, 36); opacity: 1; font-weight: normal; white-space: pre;">Longitude (m)</text></g><g class="g-ytitle" transform="translate(7.2685546875,0)"><text class="ytitle" transform="rotate(-90,5.731250000000003,242)" x="5.731250000000003" y="242" text-anchor="middle" style="font-family: 'Open Sans', verdana, arial, sans-serif; font-size: 14px; fill: rgb(36, 36, 36); opacity: 1; font-weight: normal; white-space: pre;">Latitude (m)</text></g></g></svg>